<svg width="386" height="96" viewBox="0 0 386 96" fill="none" xmlns="http://www.w3.org/2000/svg">
<g filter="url(#filter0_d_195_1629)">
<path d="M10 44C10 36.5646 10 32.8469 10.6556 29.7626C13.119 18.173 22.173 9.11902 33.7626 6.65557C36.8469 6 40.5646 6 48 6H338C345.435 6 349.153 6 352.237 6.65557C363.827 9.11902 372.881 18.173 375.344 29.7626C376 32.8469 376 36.5646 376 44V44C376 51.4354 376 55.1531 375.344 58.2374C372.881 69.827 363.827 78.881 352.237 81.3444C349.153 82 345.435 82 338 82H48C40.5646 82 36.8469 82 33.7626 81.3444C22.173 78.881 13.119 69.827 10.6556 58.2374C10 55.1531 10 51.4354 10 44V44Z" fill="url(#paint0_linear_195_1629)"/>
</g>
<defs>
<filter id="filter0_d_195_1629" x="0" y="0" width="386" height="96" filterUnits="userSpaceOnUse" color-interpolation-filters="sRGB">
<feFlood flood-opacity="0" result="BackgroundImageFix"/>
<feColorMatrix in="SourceAlpha" type="matrix" values="0 0 0 0 0 0 0 0 0 0 0 0 0 0 0 0 0 0 127 0" result="hardAlpha"/>
<feOffset dy="4"/>
<feGaussianBlur stdDeviation="5"/>
<feColorMatrix type="matrix" values="0 0 0 0 0 0 0 0 0 0 0 0 0 0 0 0 0 0 0.25 0"/>
<feBlend mode="normal" in2="BackgroundImageFix" result="effect1_dropShadow_195_1629"/>
<feBlend mode="normal" in="SourceGraphic" in2="effect1_dropShadow_195_1629" result="shape"/>
</filter>
<linearGradient id="paint0_linear_195_1629" x1="193" y1="6" x2="193" y2="82" gradientUnits="userSpaceOnUse">
<stop stop-color="#21C8F6"/>
<stop offset="1" stop-color="#637BFF"/>
</linearGradient>
</defs>
</svg>
