<svg width="57" height="47" viewBox="0 0 57 47" fill="none" xmlns="http://www.w3.org/2000/svg">
<path d="M0 46.5V41.3333H56.8333V46.5H0ZM7.75 38.75C6.32917 38.75 5.11328 38.2445 4.10233 37.2336C3.09139 36.2226 2.58506 35.0059 2.58333 33.5833V5.16667C2.58333 3.74583 3.08967 2.52994 4.10233 1.519C5.115 0.508056 6.33089 0.00172222 7.75 0H49.0833C50.5042 0 51.7209 0.506333 52.7336 1.519C53.7462 2.53167 54.2517 3.74756 54.25 5.16667V33.5833C54.25 35.0042 53.7445 36.2209 52.7336 37.2336C51.7226 38.2462 50.5059 38.7517 49.0833 38.75H7.75ZM7.75 33.5833H49.0833V5.16667H7.75V33.5833Z" fill="white"/>
</svg>
